<?xml version="1.0" encoding="UTF-8" standalone="no"?>
<!DOCTYPE svg PUBLIC "-//W3C//DTD SVG 1.1//EN"
 "http://www.w3.org/Graphics/SVG/1.1/DTD/svg11.dtd">
<!-- Generated by graphviz version 14.0.4 (20251115.1723)
 -->
<!-- Title: pipeline Pages: 1 -->
<svg width="252pt" height="1352pt"
 viewBox="0.00 0.00 252.00 1352.00" xmlns="http://www.w3.org/2000/svg" xmlns:xlink="http://www.w3.org/1999/xlink">
<g id="graph0" class="graph" transform="scale(1 1) rotate(0) translate(4 1347.57)">
<title>pipeline</title>
<polygon fill="white" stroke="none" points="-4,4 -4,-1347.57 248,-1347.57 248,4 -4,4"/>
<g id="cluster_d172e3" class="cluster">
<title>cluster_d172e3</title>
</g>
<g id="cluster_d172e2" class="cluster">
<title>cluster_d172e2</title>
<path fill="none" stroke="#56b4e9" stroke-width="2" d="M20,-96.32C20,-96.32 224,-96.32 224,-96.32 230,-96.32 236,-102.32 236,-108.32 236,-108.32 236,-1323.57 236,-1323.57 236,-1329.57 230,-1335.57 224,-1335.57 224,-1335.57 20,-1335.57 20,-1335.57 14,-1335.57 8,-1329.57 8,-1323.57 8,-1323.57 8,-108.32 8,-108.32 8,-102.32 14,-96.32 20,-96.32"/>
<text xml:space="preserve" text-anchor="middle" x="122" y="-1318.27" font-family="sans-serif" font-size="14.00">p:declare&#45;step</text>
</g>
<g id="cluster_d172e9" class="cluster">
<title>cluster_d172e9</title>
</g>
<g id="cluster_d172e20" class="cluster">
<title>cluster_d172e20</title>
</g>
<g id="cluster_d172e30" class="cluster">
<title>cluster_d172e30</title>
</g>
<g id="cluster_d172e43" class="cluster">
<title>cluster_d172e43</title>
</g>
<g id="cluster_d172e53" class="cluster">
<title>cluster_d172e53</title>
<path fill="none" stroke="#56b4e9" stroke-width="2" d="M48,-417.32C48,-417.32 196,-417.32 196,-417.32 202,-417.32 208,-423.32 208,-429.32 208,-429.32 208,-844.57 208,-844.57 208,-850.57 202,-856.57 196,-856.57 196,-856.57 48,-856.57 48,-856.57 42,-856.57 36,-850.57 36,-844.57 36,-844.57 36,-429.32 36,-429.32 36,-423.32 42,-417.32 48,-417.32"/>
<text xml:space="preserve" text-anchor="middle" x="122" y="-839.27" font-family="sans-serif" font-size="14.00">p:for&#45;each</text>
</g>
<g id="cluster_d172e54" class="cluster">
<title>cluster_d172e54</title>
</g>
<g id="cluster_d172e61" class="cluster">
<title>cluster_d172e61</title>
</g>
<g id="cluster_d172e73" class="cluster">
<title>cluster_d172e73</title>
</g>
<g id="cluster_d172e85" class="cluster">
<title>cluster_d172e85</title>
</g>
<g id="cluster_d172e96" class="cluster">
<title>cluster_d172e96</title>
</g>
<g id="cluster_d172e106" class="cluster">
<title>cluster_d172e106</title>
</g>
<g id="cluster_d172e118" class="cluster">
<title>cluster_d172e118</title>
</g>
<!-- cluster_d172e3 -->
<g id="node1" class="node">
<title>cluster_d172e3</title>
<polygon fill="none" stroke="black" points="167.45,-50.9 122,-69.32 76.55,-50.9 76.59,-21.09 167.41,-21.09 167.45,-50.9"/>
<polygon fill="none" stroke="black" points="104,-31.41 104,-53.91 140,-53.91 140,-31.41 104,-31.41"/>
<text xml:space="preserve" text-anchor="start" x="107" y="-37.61" font-family="Times,serif" font-size="14.00">result</text>
</g>
<!-- cluster_d172e9 -->
<g id="node2" class="node">
<title>cluster_d172e9</title>
<polygon fill="none" stroke="black" points="32,-1270.07 32,-1292.57 212,-1292.57 212,-1270.07 32,-1270.07"/>
<text xml:space="preserve" text-anchor="start" x="86.75" y="-1276.27" font-family="Times,serif" font-size="14.00">cx:document</text>
<polygon fill="none" stroke="black" points="32,-1247.57 32,-1270.07 212,-1270.07 212,-1247.57 32,-1247.57"/>
<text xml:space="preserve" text-anchor="start" x="35" y="-1253.77" font-family="Times,serif" font-size="14.00">href=&quot;../xml/default&#45;input.xml&quot;</text>
<polygon fill="none" stroke="black" points="32,-1225.07 32,-1247.57 212,-1247.57 212,-1225.07 32,-1225.07"/>
<text xml:space="preserve" text-anchor="start" x="107" y="-1231.27" font-family="Times,serif" font-size="14.00">result</text>
</g>
<!-- cluster_d172e20 -->
<g id="node3" class="node">
<title>cluster_d172e20</title>
<polygon fill="none" stroke="black" points="90.5,-1157.57 90.5,-1180.07 153.5,-1180.07 153.5,-1157.57 90.5,-1157.57"/>
<text xml:space="preserve" text-anchor="start" x="104.38" y="-1163.77" font-family="Times,serif" font-size="14.00">source</text>
<polygon fill="#edc571" stroke="none" points="90.5,-1135.07 90.5,-1157.57 153.5,-1157.57 153.5,-1135.07 90.5,-1135.07"/>
<polygon fill="none" stroke="black" points="90.5,-1135.07 90.5,-1157.57 153.5,-1157.57 153.5,-1135.07 90.5,-1135.07"/>
<text xml:space="preserve" text-anchor="start" x="93.5" y="-1141.27" font-family="Times,serif" font-size="14.00">p:xinclude</text>
<polygon fill="none" stroke="black" points="90.5,-1112.57 90.5,-1135.07 153.5,-1135.07 153.5,-1112.57 90.5,-1112.57"/>
<text xml:space="preserve" text-anchor="start" x="107" y="-1118.77" font-family="Times,serif" font-size="14.00">result</text>
</g>
<!-- cluster_d172e9&#45;&gt;cluster_d172e20 -->
<g id="edge6" class="edge">
<title>cluster_d172e9:_7&#45;&gt;cluster_d172e20:_9</title>
<path fill="none" stroke="black" d="M122,-1224.07C122,-1209.43 122,-1203.2 122,-1192.51"/>
<polygon fill="black" stroke="black" points="125.5,-1192.58 122,-1182.58 118.5,-1192.58 125.5,-1192.58"/>
</g>
<!-- cluster_d172e30 -->
<g id="node4" class="node">
<title>cluster_d172e30</title>
<polygon fill="none" stroke="black" points="78.5,-1045.07 78.5,-1067.57 165.5,-1067.57 165.5,-1045.07 78.5,-1045.07"/>
<text xml:space="preserve" text-anchor="start" x="104.38" y="-1051.27" font-family="Times,serif" font-size="14.00">source</text>
<g id="a_node4_0"><a xlink:href="ex_ident.html" xlink:title="&lt;TABLE&gt;">
<polygon fill="#edc571" stroke="none" points="78.5,-1022.57 78.5,-1045.07 128,-1045.07 128,-1022.57 78.5,-1022.57"/>
<polygon fill="none" stroke="black" points="78.5,-1022.57 78.5,-1045.07 128,-1045.07 128,-1022.57 78.5,-1022.57"/>
<text xml:space="preserve" text-anchor="start" x="81.5" y="-1028.77" font-family="Times,serif" font-size="14.00" fill="#0000ff">ex:ident</text>
</a>
</g>
<polygon fill="none" stroke="black" points="128,-1022.57 128,-1045.07 165.5,-1045.07 165.5,-1022.57 128,-1022.57"/>
<text xml:space="preserve" text-anchor="start" x="131" y="-1028.77" font-family="Times,serif" font-size="14.00">“ex1”</text>
<polygon fill="none" stroke="black" points="78.5,-1000.07 78.5,-1022.57 165.5,-1022.57 165.5,-1000.07 78.5,-1000.07"/>
<text xml:space="preserve" text-anchor="start" x="107" y="-1006.27" font-family="Times,serif" font-size="14.00">result</text>
</g>
<!-- cluster_d172e20&#45;&gt;cluster_d172e30 -->
<g id="edge7" class="edge">
<title>cluster_d172e20:_12&#45;&gt;cluster_d172e30:_14</title>
<path fill="none" stroke="black" d="M122,-1111.57C122,-1096.93 122,-1090.7 122,-1080.01"/>
<polygon fill="black" stroke="black" points="125.5,-1080.08 122,-1070.08 118.5,-1080.08 125.5,-1080.08"/>
</g>
<!-- cluster_d172e43 -->
<g id="node5" class="node">
<title>cluster_d172e43</title>
<polygon fill="none" stroke="black" points="95.38,-932.57 95.38,-955.07 148.62,-955.07 148.62,-932.57 95.38,-932.57"/>
<text xml:space="preserve" text-anchor="start" x="104.38" y="-938.77" font-family="Times,serif" font-size="14.00">source</text>
<polygon fill="#edc571" stroke="none" points="95.38,-910.07 95.38,-932.57 148.62,-932.57 148.62,-910.07 95.38,-910.07"/>
<polygon fill="none" stroke="black" points="95.38,-910.07 95.38,-932.57 148.62,-932.57 148.62,-910.07 95.38,-910.07"/>
<text xml:space="preserve" text-anchor="start" x="98.38" y="-916.27" font-family="Times,serif" font-size="14.00">cx:select</text>
<polygon fill="none" stroke="black" points="95.38,-887.57 95.38,-910.07 148.62,-910.07 148.62,-887.57 95.38,-887.57"/>
<text xml:space="preserve" text-anchor="start" x="107" y="-893.77" font-family="Times,serif" font-size="14.00">result</text>
</g>
<!-- cluster_d172e30&#45;&gt;cluster_d172e43 -->
<g id="edge8" class="edge">
<title>cluster_d172e30:_15&#45;&gt;cluster_d172e43:_17</title>
<path fill="none" stroke="black" d="M122,-999.07C122,-984.43 122,-978.2 122,-967.51"/>
<polygon fill="black" stroke="black" points="125.5,-967.58 122,-957.58 118.5,-967.58 125.5,-967.58"/>
</g>
<!-- cluster_d172e54 -->
<g id="node6" class="node">
<title>cluster_d172e54</title>
<polygon fill="none" stroke="black" points="99.12,-791.07 99.12,-813.57 144.88,-813.57 144.88,-791.07 99.12,-791.07"/>
<text xml:space="preserve" text-anchor="start" x="102.12" y="-797.27" font-family="Times,serif" font-size="14.00">!source</text>
<polygon fill="none" stroke="black" points="99.12,-768.57 99.12,-791.07 144.88,-791.07 144.88,-768.57 99.12,-768.57"/>
<text xml:space="preserve" text-anchor="start" x="102.88" y="-774.77" font-family="Times,serif" font-size="14.00">current</text>
</g>
<!-- cluster_d172e43&#45;&gt;cluster_d172e54 -->
<g id="edge2" class="edge">
<title>cluster_d172e43:_18&#45;&gt;cluster_d172e54:_22</title>
<path fill="none" stroke="black" d="M122,-886.57C122,-858.69 122,-849.03 122,-825.85"/>
<polygon fill="black" stroke="black" points="125.5,-826.08 122,-816.08 118.5,-826.08 125.5,-826.08"/>
</g>
<!-- cluster_d172e61 -->
<g id="node7" class="node">
<title>cluster_d172e61</title>
<polygon fill="none" stroke="black" points="75.5,-701.07 75.5,-723.57 168.5,-723.57 168.5,-701.07 75.5,-701.07"/>
<text xml:space="preserve" text-anchor="start" x="104.38" y="-707.27" font-family="Times,serif" font-size="14.00">source</text>
<polygon fill="#edc571" stroke="none" points="75.5,-678.57 75.5,-701.07 133.25,-701.07 133.25,-678.57 75.5,-678.57"/>
<polygon fill="none" stroke="black" points="75.5,-678.57 75.5,-701.07 133.25,-701.07 133.25,-678.57 75.5,-678.57"/>
<text xml:space="preserve" text-anchor="start" x="78.5" y="-684.77" font-family="Times,serif" font-size="14.00">p:identity</text>
<polygon fill="none" stroke="black" points="133.25,-678.57 133.25,-701.07 168.5,-701.07 168.5,-678.57 133.25,-678.57"/>
<text xml:space="preserve" text-anchor="start" x="136.25" y="-684.77" font-family="Times,serif" font-size="14.00">“id1”</text>
<polygon fill="none" stroke="black" points="75.5,-656.07 75.5,-678.57 168.5,-678.57 168.5,-656.07 75.5,-656.07"/>
<text xml:space="preserve" text-anchor="start" x="107" y="-662.27" font-family="Times,serif" font-size="14.00">result</text>
</g>
<!-- cluster_d172e54&#45;&gt;cluster_d172e61 -->
<g id="edge3" class="edge">
<title>cluster_d172e54:_23&#45;&gt;cluster_d172e61:_27</title>
<path fill="none" stroke="black" d="M122,-767.57C122,-752.93 122,-746.7 122,-736.01"/>
<polygon fill="black" stroke="black" points="125.5,-736.08 122,-726.08 118.5,-736.08 125.5,-736.08"/>
</g>
<!-- cluster_d172e73 -->
<g id="node8" class="node">
<title>cluster_d172e73</title>
<polygon fill="none" stroke="black" points="60.5,-572.32 60.5,-594.82 183.5,-594.82 183.5,-572.32 60.5,-572.32"/>
<text xml:space="preserve" text-anchor="start" x="104.38" y="-578.52" font-family="Times,serif" font-size="14.00">source</text>
<polygon fill="#edc571" stroke="none" points="60.5,-549.82 60.5,-572.32 146,-572.32 146,-549.82 60.5,-549.82"/>
<polygon fill="none" stroke="black" points="60.5,-549.82 60.5,-572.32 146,-572.32 146,-549.82 60.5,-549.82"/>
<text xml:space="preserve" text-anchor="start" x="63.5" y="-556.02" font-family="Times,serif" font-size="14.00">p:add&#45;attribute</text>
<polygon fill="none" stroke="black" points="146,-549.82 146,-572.32 183.5,-572.32 183.5,-549.82 146,-549.82"/>
<text xml:space="preserve" text-anchor="start" x="149" y="-556.02" font-family="Times,serif" font-size="14.00">“add”</text>
<polygon fill="none" stroke="black" points="60.5,-527.32 60.5,-549.82 183.5,-549.82 183.5,-527.32 60.5,-527.32"/>
<text xml:space="preserve" text-anchor="start" x="107" y="-533.52" font-family="Times,serif" font-size="14.00">result</text>
</g>
<!-- cluster_d172e61&#45;&gt;cluster_d172e73 -->
<g id="edge4" class="edge">
<title>cluster_d172e61:_28&#45;&gt;cluster_d172e73:_30</title>
<path fill="none" stroke="black" d="M122,-655.07C122,-632.85 122,-624.69 122,-606.86"/>
<polygon fill="black" stroke="black" points="125.5,-607.33 122,-597.33 118.5,-607.33 125.5,-607.33"/>
<text xml:space="preserve" text-anchor="middle" x="129.12" y="-620.77" font-family="Times,serif" font-size="14.00">⋮</text>
</g>
<!-- cluster_d172e85 -->
<g id="node9" class="node">
<title>cluster_d172e85</title>
<polygon fill="none" stroke="black" points="101.75,-459.82 101.75,-482.32 142.25,-482.32 142.25,-459.82 101.75,-459.82"/>
<text xml:space="preserve" text-anchor="start" x="104.75" y="-466.02" font-family="Times,serif" font-size="14.00">!result</text>
<polygon fill="none" stroke="black" points="101.75,-437.32 101.75,-459.82 142.25,-459.82 142.25,-437.32 101.75,-437.32"/>
<text xml:space="preserve" text-anchor="start" x="104.75" y="-443.52" font-family="Times,serif" font-size="14.00">!result</text>
</g>
<!-- cluster_d172e73&#45;&gt;cluster_d172e85 -->
<g id="edge1" class="edge">
<title>cluster_d172e73:_34&#45;&gt;cluster_d172e85:_24</title>
<path fill="none" stroke="black" d="M122,-526.32C122,-511.68 122,-505.45 122,-494.76"/>
<polygon fill="black" stroke="black" points="125.5,-494.83 122,-484.83 118.5,-494.83 125.5,-494.83"/>
</g>
<!-- cluster_d172e96 -->
<g id="node10" class="node">
<title>cluster_d172e96</title>
<polygon fill="none" stroke="black" points="73.25,-363.82 73.25,-386.32 170.75,-386.32 170.75,-363.82 73.25,-363.82"/>
<text xml:space="preserve" text-anchor="start" x="104.38" y="-370.02" font-family="Times,serif" font-size="14.00">source</text>
<polygon fill="#edc571" stroke="none" points="73.25,-341.32 73.25,-363.82 170.75,-363.82 170.75,-341.32 73.25,-341.32"/>
<polygon fill="none" stroke="black" points="73.25,-341.32 73.25,-363.82 170.75,-363.82 170.75,-341.32 73.25,-341.32"/>
<text xml:space="preserve" text-anchor="start" x="76.25" y="-347.52" font-family="Times,serif" font-size="14.00">p:wrap&#45;sequence</text>
<polygon fill="none" stroke="black" points="73.25,-318.82 73.25,-341.32 170.75,-341.32 170.75,-318.82 73.25,-318.82"/>
<text xml:space="preserve" text-anchor="start" x="107" y="-325.02" font-family="Times,serif" font-size="14.00">result</text>
</g>
<!-- cluster_d172e85&#45;&gt;cluster_d172e96 -->
<g id="edge9" class="edge">
<title>cluster_d172e85:_25&#45;&gt;cluster_d172e96:_36</title>
<path fill="none" stroke="black" d="M122,-436.32C122,-418.79 122,-411.84 122,-398.45"/>
<polygon fill="black" stroke="black" points="125.5,-398.83 122,-388.83 118.5,-398.83 125.5,-398.83"/>
</g>
<!-- cluster_d172e106 -->
<g id="node11" class="node">
<title>cluster_d172e106</title>
<polygon fill="none" stroke="black" points="75.5,-251.32 75.5,-273.82 168.5,-273.82 168.5,-251.32 75.5,-251.32"/>
<text xml:space="preserve" text-anchor="start" x="104.38" y="-257.52" font-family="Times,serif" font-size="14.00">source</text>
<polygon fill="#edc571" stroke="none" points="75.5,-228.82 75.5,-251.32 133.25,-251.32 133.25,-228.82 75.5,-228.82"/>
<polygon fill="none" stroke="black" points="75.5,-228.82 75.5,-251.32 133.25,-251.32 133.25,-228.82 75.5,-228.82"/>
<text xml:space="preserve" text-anchor="start" x="78.5" y="-235.02" font-family="Times,serif" font-size="14.00">p:identity</text>
<polygon fill="none" stroke="black" points="133.25,-228.82 133.25,-251.32 168.5,-251.32 168.5,-228.82 133.25,-228.82"/>
<text xml:space="preserve" text-anchor="start" x="136.25" y="-235.02" font-family="Times,serif" font-size="14.00">“id2”</text>
<polygon fill="none" stroke="black" points="75.5,-206.32 75.5,-228.82 168.5,-228.82 168.5,-206.32 75.5,-206.32"/>
<text xml:space="preserve" text-anchor="start" x="107" y="-212.52" font-family="Times,serif" font-size="14.00">result</text>
</g>
<!-- cluster_d172e96&#45;&gt;cluster_d172e106 -->
<g id="edge10" class="edge">
<title>cluster_d172e96:_40&#45;&gt;cluster_d172e106:_42</title>
<path fill="none" stroke="black" d="M122,-317.82C122,-303.18 122,-296.95 122,-286.26"/>
<polygon fill="black" stroke="black" points="125.5,-286.33 122,-276.33 118.5,-286.33 125.5,-286.33"/>
</g>
<!-- cluster_d172e118 -->
<g id="node12" class="node">
<title>cluster_d172e118</title>
<polygon fill="none" stroke="black" points="104,-138.82 104,-161.32 140,-161.32 140,-138.82 104,-138.82"/>
<text xml:space="preserve" text-anchor="start" x="107" y="-145.02" font-family="Times,serif" font-size="14.00">result</text>
<polygon fill="none" stroke="black" points="104,-116.32 104,-138.82 140,-138.82 140,-116.32 104,-116.32"/>
<text xml:space="preserve" text-anchor="start" x="107" y="-122.52" font-family="Times,serif" font-size="14.00">result</text>
</g>
<!-- cluster_d172e106&#45;&gt;cluster_d172e118 -->
<g id="edge5" class="edge">
<title>cluster_d172e106:_43&#45;&gt;cluster_d172e118:_4</title>
<path fill="none" stroke="black" d="M122,-205.32C122,-190.68 122,-184.45 122,-173.76"/>
<polygon fill="black" stroke="black" points="125.5,-173.83 122,-163.83 118.5,-173.83 125.5,-173.83"/>
</g>
<!-- cluster_d172e118&#45;&gt;cluster_d172e3 -->
<g id="edge11" class="edge">
<title>cluster_d172e118:_5&#45;&gt;cluster_d172e3:output_5</title>
<path fill="none" stroke="black" d="M122,-115.32C122,-98.55 122,-79.58 122,-65.37"/>
<polygon fill="black" stroke="black" points="125.5,-65.38 122,-55.38 118.5,-65.38 125.5,-65.38"/>
</g>
</g>
</svg>
